<svg width="36" height="38" viewBox="0 0 36 38" fill="none" xmlns="http://www.w3.org/2000/svg">
<g filter="url(#filter0_d_9_2593)">
<path fill-rule="evenodd" clip-rule="evenodd" d="M29.9785 13.2109C31.2237 12.0268 32 10.354 32 8.5C32 4.91015 29.0898 2 25.5 2C23.2543 2 21.2746 3.13882 20.1069 4.87046C20.6177 5.3536 21.0801 5.8875 21.4858 6.46406C22.2289 5.00184 23.7474 4 25.5 4C27.9853 4 30 6.01472 30 8.5C30 9.60602 29.601 10.6188 28.939 11.4024C29.3766 11.9406 29.7298 12.5502 29.9785 13.2109Z" fill="url(#paint0_linear_9_2593)"/>
<path fill-rule="evenodd" clip-rule="evenodd" d="M4 13C4 17.3628 6.44938 21.1323 10 22.9107V20.6003C7.61019 19.0152 6 16.2291 6 13C6 7.96046 9.92179 4 14.6083 4C18.5839 4 22.0091 6.85004 22.9569 10.7911L22.9599 10.7899C23.0937 11.3367 23.1791 11.9037 23.2108 12.4855C23.8339 12.1732 24.5272 12 25.2493 12C27.8053 12 30 14.1696 30 17C30 18.7105 29.1984 20.1797 28 21.0745V23.3944C30.3573 22.3025 32 19.8501 32 17C32 13.134 28.9776 10 25.2493 10C25.1054 10 24.9626 10.0047 24.821 10.0139C23.5661 5.38976 19.469 2 14.6083 2C8.74949 2 4 6.92487 4 13ZM20.7189 20.2026C20.9286 20.3237 21.2571 20.2708 21.4251 19.9798C21.5171 19.8204 21.6353 19.4894 21.7209 18.9505C21.7551 18.7356 21.7808 18.509 21.7994 18.2764C21.2154 18.6896 20.7729 19.1084 20.5587 19.4794C20.3908 19.7704 20.5092 20.0815 20.7189 20.2026ZM21.7944 15.9217C22.8367 15.3377 23.7192 15.0041 23.7192 15.0041C23.7192 15.0041 23.8346 15.9432 23.8392 17.1264C23.8441 18.4225 23.7159 20.0116 23.157 20.98C22.4541 22.1979 20.9149 22.6254 19.7192 21.9348C18.5235 21.2442 18.1239 19.697 18.8268 18.4792C19.4402 17.4164 20.7046 16.5322 21.7944 15.9217ZM14.1161 21.2204C14.3258 21.3415 14.6543 21.2886 14.8222 20.9976C14.9142 20.8382 15.0324 20.5072 15.1181 19.9683C15.1522 19.7535 15.178 19.5269 15.1966 19.2942C14.6125 19.7074 14.17 20.1262 13.9559 20.4972C13.7879 20.7883 13.9064 21.0993 14.1161 21.2204ZM15.1915 16.9395C16.2339 16.3555 17.1164 16.0219 17.1164 16.0219C17.1164 16.0219 17.2318 16.961 17.2363 18.1442C17.2412 19.4403 17.1131 21.0294 16.5541 21.9979C15.8512 23.2157 14.3121 23.6432 13.1164 22.9526C11.9206 22.262 11.5211 20.7149 12.224 19.497C12.8374 18.4342 14.1018 17.55 15.1915 16.9395ZM23.6793 26.1128C23.5113 26.4039 23.1828 26.4567 22.9731 26.3356C22.7635 26.2145 22.645 25.9035 22.8129 25.6125C23.0271 25.2415 23.4696 24.8227 24.0537 24.4094C24.035 24.6421 24.0093 24.8687 23.9751 25.0835C23.8895 25.6224 23.7713 25.9535 23.6793 26.1128ZM25.9734 21.1372C25.9734 21.1372 25.0909 21.4708 24.0486 22.0547C22.9589 22.6653 21.6944 23.5495 21.0811 24.6122C20.3782 25.8301 20.7777 27.3772 21.9734 28.0678C23.1691 28.7584 24.7083 28.331 25.4112 27.1131C25.9701 26.1447 26.0983 24.5556 26.0934 23.2594C26.0889 22.0762 25.9734 21.1372 25.9734 21.1372ZM16.2548 27.9374C16.4645 28.0585 16.793 28.0057 16.961 27.7146C17.0529 27.5553 17.1712 27.2243 17.2568 26.6854C17.291 26.4705 17.3167 26.2439 17.3353 26.0112C16.7513 26.4245 16.3088 26.8433 16.0946 27.2143C15.9267 27.5053 16.0451 27.8163 16.2548 27.9374ZM17.3303 23.6565C18.3726 23.0726 19.2551 22.739 19.2551 22.739C19.2551 22.739 19.3705 23.678 19.375 24.8612C19.38 26.1574 19.2518 27.7465 18.6929 28.7149C17.99 29.9328 16.4508 30.3602 15.2551 29.6696C14.0594 28.979 13.6598 27.4319 14.3627 26.214C14.9761 25.1513 16.2405 24.2671 17.3303 23.6565Z" fill="url(#paint1_linear_9_2593)"/>
</g>
<defs>
<filter id="filter0_d_9_2593" x="-2" y="0" width="40" height="40" filterUnits="userSpaceOnUse" color-interpolation-filters="sRGB">
<feFlood flood-opacity="0" result="BackgroundImageFix"/>
<feColorMatrix in="SourceAlpha" type="matrix" values="0 0 0 0 0 0 0 0 0 0 0 0 0 0 0 0 0 0 127 0" result="hardAlpha"/>
<feOffset dy="4"/>
<feGaussianBlur stdDeviation="2"/>
<feComposite in2="hardAlpha" operator="out"/>
<feColorMatrix type="matrix" values="0 0 0 0 0 0 0 0 0 0 0 0 0 0 0 0 0 0 0.25 0"/>
<feBlend mode="normal" in2="BackgroundImageFix" result="effect1_dropShadow_9_2593"/>
<feBlend mode="normal" in="SourceGraphic" in2="effect1_dropShadow_9_2593" result="shape"/>
</filter>
<linearGradient id="paint0_linear_9_2593" x1="26.0535" y1="2" x2="26.0535" y2="13.2109" gradientUnits="userSpaceOnUse">
<stop stop-color="#EFC977"/>
<stop offset="1" stop-color="#E07256"/>
</linearGradient>
<linearGradient id="paint1_linear_9_2593" x1="18" y1="2" x2="18" y2="29.9999" gradientUnits="userSpaceOnUse">
<stop stop-color="#95B6F6"/>
<stop offset="1" stop-color="#5193DE"/>
</linearGradient>
</defs>
</svg>
